<svg data-v-423bf9ae="" xmlns="http://www.w3.org/2000/svg" viewBox="0 0 433 90" class="iconLeft"><!----><!----><!----><g data-v-423bf9ae="" id="c7a4f432-acaf-435c-93d5-3504e30eb9a3" fill="#FFFFFF" transform="matrix(4.1407868148896405,0,0,4.1407868148896405,68.2088759412095,-14.56521778229451)"><path d="M8.69 17.54Q8.69 18.31 9.06 18.61L9.06 18.61Q8.40 19.18 7.66 19.18L7.66 19.18Q7 19.18 6.66 18.84Q6.33 18.51 6.29 17.81L6.29 17.81L6.16 17.74Q5.63 18.40 4.87 18.79Q4.10 19.18 3.26 19.18L3.26 19.18Q2.13 19.18 1.58 18.63Q1.04 18.07 1.04 16.91L1.04 16.91Q1.04 16.38 1.13 15.79Q1.22 15.20 1.39 14.31L1.39 14.31Q1.53 13.57 1.60 13.08Q1.68 12.59 1.68 12.19L1.68 12.19Q1.68 11.41 1.44 11.00L1.44 11.00Q1.90 10.75 2.40 10.59Q2.90 10.43 3.21 10.43L3.21 10.43Q3.72 10.43 3.96 10.65Q4.19 10.88 4.19 11.40L4.19 11.40Q4.19 11.73 4.07 12.34Q3.96 12.95 3.74 14.00L3.74 14.00Q3.58 14.74 3.45 15.45Q3.32 16.16 3.32 16.46L3.32 16.46Q3.32 17.74 4.42 17.74L4.42 17.74Q4.97 17.74 5.50 17.40Q6.02 17.05 6.41 16.45L6.41 16.45Q6.59 15.34 7.28 12.35L7.28 12.35L6.58 11.30Q7.94 10.43 8.88 10.43L8.88 10.43Q9.39 10.43 9.61 10.65Q9.83 10.86 9.83 11.37L9.83 11.37Q9.83 11.56 9.51 12.92L9.51 12.92Q9.14 14.43 8.92 15.58Q8.69 16.72 8.69 17.54L8.69 17.54ZM12.99 19.18Q12.28 19.18 11.95 18.82Q11.62 18.45 11.62 17.74L11.62 17.74Q11.62 17.16 11.94 15.42Q12.26 13.68 12.63 12.14L12.63 12.14L11.94 11.19Q12.46 10.85 13.04 10.65Q13.62 10.44 14.15 10.44L14.15 10.44Q14.67 10.44 14.91 10.68Q15.15 10.92 15.15 11.40L15.15 11.40Q15.15 11.76 15.05 12.17Q14.95 12.59 14.78 12.92L14.78 12.92L14.92 12.99Q16.38 10.43 18.68 10.43L18.68 10.43Q19.56 10.43 19.98 10.86Q20.41 11.30 20.41 12.19L20.41 12.19Q20.41 12.70 20.31 13.23Q20.22 13.76 19.99 14.69L19.99 14.69Q19.77 15.60 19.64 16.25Q19.52 16.91 19.52 17.54L19.52 17.54Q19.52 18.26 19.77 18.61L19.77 18.61Q19.15 19.18 18.48 19.18L18.48 19.18Q17.77 19.18 17.44 18.82Q17.12 18.45 17.12 17.74L17.12 17.74Q17.12 17.18 17.24 16.58Q17.36 15.97 17.60 15.02L17.60 15.02Q17.79 14.25 17.88 13.82Q17.98 13.38 17.98 13.03L17.98 13.03Q17.98 12.24 17.35 12.24L17.35 12.24Q16.65 12.24 15.86 12.98Q15.08 13.72 14.55 14.95Q14.03 16.17 14.03 17.54L14.03 17.54Q14.03 18.26 14.28 18.61L14.28 18.61Q13.64 19.18 12.99 19.18L12.99 19.18ZM25.05 19.18Q23.39 19.18 22.57 18.75Q21.76 18.31 21.76 17.56L21.76 17.56Q21.76 17.23 21.95 16.90Q22.15 16.56 22.50 16.32L22.50 16.32Q22.88 17.01 23.48 17.39Q24.09 17.77 24.92 17.77L24.92 17.77Q25.59 17.77 26.13 17.49Q26.67 17.21 26.67 16.69L26.67 16.69Q26.67 16.37 26.28 16.16Q25.90 15.96 25.09 15.71L25.09 15.71Q24.21 15.43 23.63 15.17Q23.06 14.91 22.64 14.43Q22.23 13.96 22.23 13.23L22.23 13.23Q22.23 11.87 23.46 11.15Q24.70 10.43 26.60 10.43L26.60 10.43Q27.94 10.43 28.74 10.84Q29.54 11.24 29.54 11.90L29.54 11.90Q29.54 12.49 29.13 12.82Q28.73 13.15 28.13 13.15L28.13 13.15Q27.57 13.15 27.11 12.79Q26.66 12.43 26.40 11.76L26.40 11.76Q25.61 11.83 25.09 12.16Q24.57 12.49 24.57 12.95L24.57 12.95Q24.57 13.30 24.95 13.50Q25.33 13.71 26.18 13.99L26.18 13.99Q27.05 14.27 27.62 14.53Q28.20 14.78 28.60 15.27Q29.01 15.75 29.01 16.49L29.01 16.49Q29.01 17.35 28.43 17.96Q27.86 18.56 26.96 18.87Q26.05 19.18 25.05 19.18L25.05 19.18ZM34.54 19.18Q32.83 19.18 31.86 18.24Q30.88 17.30 30.88 15.64L30.88 15.64Q30.88 14.15 31.57 12.96Q32.26 11.77 33.45 11.10Q34.65 10.43 36.13 10.43L36.13 10.43Q37.21 10.43 37.85 10.82Q38.49 11.20 38.49 11.84L38.49 11.84Q38.49 12.38 38.11 12.73Q37.73 13.08 37.14 13.08L37.14 13.08Q36.58 13.08 36.11 12.78Q35.64 12.47 35.36 11.90L35.36 11.90Q34.76 12.14 34.28 12.70Q33.80 13.26 33.52 14.04Q33.25 14.83 33.25 15.68L33.25 15.68Q33.25 16.76 33.62 17.35Q33.99 17.93 34.66 17.93L34.66 17.93Q35.45 17.93 36.00 17.31Q36.55 16.69 36.60 15.79L36.60 15.79Q37.32 15.79 37.71 16.06Q38.09 16.32 38.09 16.86L38.09 16.86Q38.09 17.49 37.62 18.02Q37.14 18.55 36.32 18.87Q35.50 19.18 34.54 19.18L34.54 19.18ZM41.31 19.18Q40.60 19.18 40.27 18.80Q39.94 18.42 39.94 17.67L39.94 17.67Q39.94 17.14 40.26 15.43Q40.57 13.72 40.96 12.14L40.96 12.14L40.26 11.19Q41.24 10.44 42.04 10.44L42.04 10.44Q42.55 10.44 42.79 10.70Q43.04 10.95 43.04 11.40L43.04 11.40Q43.04 11.84 42.91 12.31Q42.78 12.77 42.55 13.37L42.55 13.37L42.69 13.44Q43.27 11.91 43.88 11.17Q44.49 10.43 45.36 10.43L45.36 10.43Q45.93 10.43 46.26 10.74Q46.58 11.05 46.58 11.59L46.58 11.59Q46.58 12.22 46.15 12.62Q45.72 13.02 44.97 13.02L44.97 13.02Q44.28 13.02 43.68 13.64Q43.08 14.27 42.71 15.32Q42.35 16.37 42.35 17.54L42.35 17.54Q42.35 18.26 42.60 18.61L42.60 18.61Q41.99 19.18 41.31 19.18L41.31 19.18ZM49.74 9.49Q49.17 9.49 48.81 9.22Q48.45 8.95 48.45 8.47L48.45 8.47Q48.45 7.88 48.96 7.51Q49.46 7.14 50.09 7.14L50.09 7.14Q50.67 7.14 51.02 7.41Q51.38 7.69 51.38 8.15L51.38 8.15Q51.38 8.74 50.90 9.11Q50.41 9.49 49.74 9.49L49.74 9.49ZM48.73 19.18Q48.02 19.18 47.69 18.82Q47.36 18.47 47.36 17.74L47.36 17.74Q47.36 17.18 47.62 15.83Q47.88 14.48 48.37 12.29L48.37 12.29L47.66 11.30Q48.19 10.91 48.80 10.67Q49.42 10.43 49.95 10.43L49.95 10.43Q50.47 10.43 50.69 10.65Q50.90 10.86 50.90 11.37L50.90 11.37Q50.90 11.56 50.58 12.92L50.58 12.92Q50.22 14.43 49.99 15.58Q49.77 16.72 49.77 17.54L49.77 17.54Q49.77 18.33 50.13 18.61L50.13 18.61Q49.48 19.18 48.73 19.18L48.73 19.18ZM59.05 10.43Q59.82 10.43 60.41 10.84Q61.00 11.24 61.32 11.99Q61.64 12.74 61.64 13.72L61.64 13.72Q61.64 15.19 60.93 16.35Q60.23 17.51 58.98 18.17Q57.74 18.83 56.15 18.83L56.15 18.83Q55.54 18.83 54.98 18.72L54.98 18.72Q54.94 19.26 54.94 19.81L54.94 19.81Q54.94 20.26 55.03 20.55Q55.12 20.83 55.31 21.06L55.31 21.06Q55.02 21.32 54.63 21.48Q54.24 21.63 53.84 21.63L53.84 21.63Q53.17 21.63 52.86 21.27Q52.54 20.90 52.54 20.12L52.54 20.12Q52.54 19.60 52.89 17.31Q53.24 15.02 53.73 12.25L53.73 12.25L53.02 11.28Q53.55 10.89 54.14 10.66Q54.74 10.43 55.24 10.43L55.24 10.43Q55.79 10.43 56.02 10.64Q56.25 10.85 56.25 11.34L56.25 11.34Q56.25 11.69 56.08 12.56L56.08 12.56L56.22 12.63Q56.66 11.59 57.40 11.01Q58.14 10.43 59.05 10.43L59.05 10.43ZM55.08 17.75Q56.31 17.70 57.27 17.21Q58.23 16.73 58.76 15.91Q59.29 15.09 59.29 14.07L59.29 14.07Q59.29 13.29 58.96 12.85Q58.63 12.42 58.03 12.42L58.03 12.42Q57.15 12.42 56.36 13.73Q55.58 15.05 55.13 17.29L55.13 17.29Q55.10 17.44 55.08 17.75L55.08 17.75ZM68.29 11.17Q68.77 11.17 68.95 11.32Q69.13 11.47 69.13 11.84L69.13 11.84Q69.13 12.19 68.91 12.68L68.91 12.68Q68.36 12.52 67.62 12.52L67.62 12.52L67.33 12.52Q66.95 13.82 66.70 14.99Q66.46 16.17 66.44 17.35L66.44 17.35L67.10 18.45Q66.71 18.80 66.25 18.99Q65.80 19.18 65.38 19.18L65.38 19.18Q64.75 19.18 64.39 18.85Q64.02 18.52 64.02 17.63L64.02 17.63Q64.02 16.95 64.20 16.09Q64.37 15.22 64.69 13.96L64.69 13.96L64.97 12.78Q64.61 12.81 64.43 12.81L64.43 12.81Q63.95 12.81 63.77 12.66Q63.59 12.52 63.59 12.15L63.59 12.15Q63.59 11.75 63.81 11.30L63.81 11.30Q64.33 11.47 65.11 11.47L65.11 11.47L65.20 11.47L65.20 11.38Q65.20 10.64 64.93 9.90L64.93 9.90Q65.34 9.52 65.89 9.29Q66.44 9.06 67.00 9.06L67.00 9.06Q67.52 9.06 67.74 9.28Q67.96 9.51 67.96 10.02L67.96 10.02Q67.96 10.35 67.72 11.20L67.72 11.20Q68.11 11.17 68.29 11.17L68.29 11.17ZM77.48 12.45Q77.48 13.41 76.82 14.11Q76.16 14.81 74.91 15.19Q73.67 15.57 71.95 15.58L71.95 15.58L71.95 15.76Q71.95 16.79 72.31 17.36Q72.67 17.93 73.32 17.93L73.32 17.93Q74.10 17.93 74.61 17.39Q75.11 16.84 75.15 15.95L75.15 15.95Q75.88 15.95 76.27 16.22Q76.65 16.49 76.65 17.01L76.65 17.01Q76.65 17.60 76.17 18.10Q75.70 18.59 74.88 18.89Q74.06 19.18 73.07 19.18L73.07 19.18Q71.43 19.18 70.50 18.26Q69.58 17.33 69.58 15.71L69.58 15.71Q69.58 14.21 70.27 13.01Q70.97 11.80 72.18 11.12Q73.40 10.43 74.91 10.43L74.91 10.43Q76.13 10.43 76.80 10.96Q77.48 11.49 77.48 12.45L77.48 12.45ZM74.54 11.77Q73.70 11.77 73.00 12.59Q72.31 13.40 72.06 14.63L72.06 14.63Q73.65 14.56 74.53 14.04Q75.40 13.51 75.40 12.61L75.40 12.61Q75.40 12.24 75.17 12.01Q74.93 11.77 74.54 11.77L74.54 11.77ZM87.99 8.89Q87.99 9.18 87.88 9.74Q87.78 10.29 87.70 10.69Q87.61 11.09 87.57 11.26L87.57 11.26Q87.16 13.02 86.92 14.48Q86.67 15.93 86.67 17.35L86.67 17.35Q86.67 17.84 86.76 18.12Q86.86 18.40 87.05 18.61L87.05 18.61Q86.74 18.89 86.35 19.03Q85.96 19.18 85.58 19.18L85.58 19.18Q84.91 19.18 84.59 18.77Q84.28 18.37 84.28 17.51L84.28 17.51L84.29 17.12L84.15 17.07Q83.71 18.06 82.96 18.62Q82.21 19.18 81.31 19.18L81.31 19.18Q80.54 19.18 79.95 18.77Q79.37 18.37 79.04 17.62Q78.72 16.87 78.72 15.89L78.72 15.89Q78.72 14.42 79.43 13.26Q80.14 12.10 81.39 11.44Q82.64 10.78 84.22 10.78L84.22 10.78Q84.81 10.78 85.27 10.86L85.27 10.86L85.47 9.80L84.76 8.83Q85.27 8.46 85.87 8.22Q86.46 7.98 86.98 7.98L86.98 7.98Q87.53 7.98 87.76 8.19Q87.99 8.40 87.99 8.89L87.99 8.89ZM84.55 15.25Q84.71 14.08 85.11 11.87L85.11 11.87Q83.94 11.96 83.03 12.46Q82.11 12.96 81.60 13.77Q81.09 14.57 81.09 15.54L81.09 15.54Q81.09 16.32 81.42 16.76Q81.75 17.19 82.33 17.19L82.33 17.19Q82.98 17.19 83.58 16.66Q84.18 16.13 84.55 15.23L84.55 15.23L84.55 15.25Z"></path></g><!----><g data-v-423bf9ae="" id="cd1eb669-0be9-48c5-ab07-23f4d9cdf368" transform="matrix(1.1404962465026833,0,0,1.1404962465026833,-24.30276151783901,-5.781861418845196)" stroke="none" fill="#50C1AE"><path d="M66.196 59.911c-8.522 0-15.972 4.655-19.956 11.552V46.654c6.632-.769 11.8-6.412 11.8-13.247V19.004c0-.032.005-.064.005-.096 0-7.357-5.985-13.343-13.343-13.343-7.321 0-13.279 5.928-13.338 13.236-.003.036-.011.07-.011.107v.03c-.001.016-.005.032-.005.048 0 .033.005.064.005.096v14.326c0 6.848 5.188 12.503 11.84 13.253v24.88C39.218 64.606 31.747 59.92 23.197 59.92h-1.523v1.523c0 12.182 9.506 22.178 21.488 22.977v.049h1.201c.116.002.23.009.346.009h1.524v-.067c11.982-.8 21.487-10.796 21.487-22.977v-1.523h-1.524zm-21.494-51.3c5.666 0 10.277 4.602 10.295 10.264 0 .011-.003.021-.003.032v.096a10.238 10.238 0 01-.352 2.547c.003-.105.016-.208.016-.314 0-4.813-3.915-8.728-8.728-8.728-4.018 0-7.287 3.269-7.287 7.287a6.141 6.141 0 006.134 6.134 1.524 1.524 0 000-3.046 3.09 3.09 0 01-3.087-3.087 4.245 4.245 0 014.24-4.24 5.688 5.688 0 015.681 5.681c0 4.125-3.356 7.482-7.482 7.482-4.015 0-7.47-2.445-8.955-5.924a10.23 10.23 0 01-.768-3.888c-.001-5.677 4.618-10.296 10.296-10.296zM34.4 33.407v-6.03a13.32 13.32 0 0010.302 4.873c4.138 0 7.842-1.893 10.292-4.859v6.016c0 5.677-4.619 10.296-10.296 10.296-5.679.001-10.298-4.619-10.298-10.296zm-9.617 29.622c8.806.694 16.005 7.126 17.898 15.544l-7.771-7.771a1.523 1.523 0 10-2.154 2.154l8.081 8.082c-8.668-1.709-15.346-9.025-16.054-18.009zm24.283 17.89l7.771-7.771a1.521 1.521 0 000-2.154 1.521 1.521 0 00-2.154 0l-8.082 8.082c1.71-8.668 9.026-15.346 18.01-16.054-.695 8.805-7.127 16.004-15.545 17.897z"></path></g><!----></svg>